<?xml version="1.0" encoding="iso-8859-1"?>
<!-- Uploaded to: SVG Repo, www.svgrepo.com, Generator: SVG Repo Mixer Tools -->
<svg fill="#000000" height="800px" width="800px" version="1.1" id="Layer_1" xmlns="http://www.w3.org/2000/svg" xmlns:xlink="http://www.w3.org/1999/xlink" 
	 viewBox="0 0 512 512" xml:space="preserve">
<g>
	<g>
		<path d="M451.401,195.248c4.89-32.148,6.03-86.107-22.494-124.137c0,0-49.048,4.068-87.272,34.008
			c-6.547-2.359-13.264-4.459-20.133-6.278c3.611-8.521,5.609-17.892,5.609-27.731C327.111,31.836,295.272,0,256,0
			s-71.111,31.836-71.111,71.111c0,9.839,1.998,19.21,5.611,27.731c-6.869,1.819-13.588,3.918-20.134,6.278
			c-38.221-29.941-87.27-34.008-87.27-34.008C54.572,109.141,55.71,163.1,60.601,195.247
			c-11.524,21.551-17.934,45.362-17.934,70.406c0,46.248,21.821,88.303,57.453,119.619L156.444,512h85.333v-45.375h28.444V512
			h85.333l56.323-126.726c35.634-31.317,57.455-73.372,57.455-119.62C469.333,240.609,462.923,216.798,451.401,195.248z M256,42.667
			c15.684,0,28.444,12.76,28.444,28.444c0,7.835-3.184,14.94-8.327,20.089c-6.623-0.509-13.331-0.785-20.117-0.785
			c-6.787,0-13.493,0.275-20.117,0.785c-5.143-5.148-8.327-12.254-8.327-20.089C227.556,55.427,240.316,42.667,256,42.667z
			 M383.711,353.225l-7.024,6.174l-3.797,8.548l-45.062,101.387h-14.939v-2.708v-42.667H199.111v42.667v2.708h-14.939
			l-45.063-101.39l-3.797-8.546l-7.024-6.174c-27.699-24.344-42.954-55.444-42.954-87.57c0-17.37,4.338-34.288,12.891-50.286
			l6.69-12.511l-2.133-14.025c-1.441-9.473-3.5-28.353-1.101-48.366c0.912-7.6,2.355-14.593,4.321-20.952
			c11.928,3.758,26.011,9.761,38.053,19.196l18.578,14.552l22.201-8.003c22.416-8.08,46.359-12.177,71.167-12.177
			c24.808,0,48.75,4.097,71.165,12.177l22.199,8.003l18.578-14.552c12.097-9.475,26.15-15.478,38.064-19.228
			c8.415,27.172,4.874,58.431,3.211,69.352l-2.133,14.026l6.69,12.511c8.555,15.996,12.891,32.914,12.891,50.283
			C426.667,297.782,411.411,328.88,383.711,353.225z"/>
	</g>
</g>
<g>
	<g>
		<path d="M256,241.782c-46.255,0-85.333,32.563-85.333,71.108c0,38.545,39.078,71.11,85.333,71.11s85.333-32.563,85.333-71.11
			C341.333,274.344,302.255,241.782,256,241.782z M288.698,330.122c-8.55,7.127-20.467,11.211-32.698,11.211
			c-12.231,0-24.148-4.085-32.698-11.211c-6.335-5.279-9.968-11.56-9.968-17.232s3.634-11.952,9.968-17.23
			c8.55-7.125,20.469-11.211,32.698-11.211c12.23,0,24.148,4.086,32.698,11.211c6.335,5.278,9.968,11.558,9.968,17.23
			S295.033,324.843,288.698,330.122z"/>
	</g>
</g>
<g>
	<g>
		<circle cx="163.556" cy="248.889" r="21.333"/>
	</g>
</g>
<g>
	<g>
		<circle cx="348.444" cy="248.889" r="21.333"/>
	</g>
</g>
</svg>